<?xml version="1.0" encoding="UTF-8"?>
<svg width="16px" height="16px" viewBox="0 0 16 16" version="1.1" xmlns="http://www.w3.org/2000/svg" xmlns:xlink="http://www.w3.org/1999/xlink">
    <!-- Generator: sketchtool 51.2 (57519) - http://www.bohemiancoding.com/sketch -->
    <title>25BF693D-0B01-4001-80B9-0E99174A1C40</title>
    <desc>Created with sketchtool.</desc>
    <defs></defs>
    <g id="Symbols" stroke="none" stroke-width="1" fill="none" fill-rule="evenodd">
        <g id="Form-/-Checkbox-/-Checked-no-label" fill="#317BDA">
            <path d="M2.6,7.6 L6.2,11.2 L14.2,3.2 L13.08,2.08 L6.2,8.96 L3.72,6.48 L2.6,7.6 Z M13.4,8 C13.4,11.52 10.52,14.4 7,14.4 C3.48,14.4 0.6,11.52 0.6,8 C0.6,4.48 3.48,1.6 7,1.6 C7.64,1.6 8.2,1.68 8.76,1.84 L10.0400314,0.56 C9.08,0.24 8.04,0 7,0 C2.6,0 -1,3.6 -1,8 C-1,12.4 2.6,16 7,16 C11.4,16 15,12.4 15,8 L13.4,8 L13.4,8 Z" id="checkbox"></path>
        </g>
    </g>
</svg>