<?xml version="1.0" encoding="UTF-8"?>
<svg width="17px" height="15px" viewBox="0 0 17 15" version="1.1" xmlns="http://www.w3.org/2000/svg" xmlns:xlink="http://www.w3.org/1999/xlink">
    <!-- Generator: sketchtool 51.2 (57519) - http://www.bohemiancoding.com/sketch -->
    <title>C5B976E0-4D8C-4C27-97EA-E14A59941044</title>
    <desc>Created with sketchtool.</desc>
    <defs></defs>
    <g id="Page-1" stroke="none" stroke-width="1" fill="none" fill-rule="evenodd">
        <g id="Quote" transform="translate(-574.000000, -681.000000)" fill="#31CFDA" fill-rule="nonzero">
            <g id="full-table" transform="translate(344.000000, 681.000000)">
                <path d="M242.932862,5.72438163 C242.932862,3.81625442 242.932862,3.81625442 242.932862,1.90812721 C242.932862,1.29135882 242.894314,1.25281079 242.29682,1.25281079 C238.827498,1.25281079 235.358175,1.25281079 231.908127,1.25281079 C231.561195,1.25281079 231.291359,1.52264696 231.291359,1.86957918 C231.291359,6.26405397 231.291359,8.75040154 231.291359,13.1448763 C231.291359,13.6652747 231.368455,13.7423707 231.888853,13.7423707 C235.338901,13.7423707 238.78895,13.7423707 242.238998,13.7423707 C242.58593,13.7423707 242.87504,14.0122069 242.87504,14.3591391 C242.87504,14.7060713 242.58593,14.9951815 242.238998,14.9951815 C238.866046,14.9951815 235.146161,14.9951815 231.811757,14.9951815 C230.867331,14.9951815 230.231288,14.5518792 230.057822,13.7616447 C230.019274,13.5689046 230.019274,13.3761645 230.019274,13.1834243 C230.019274,8.80822358 230.038548,6.34115002 230,1.96594925 C230,1.29135882 230.154192,0.751686476 230.57822,0.385480244 C230.867331,0.115644073 231.272085,0 231.657565,0 L242.58593,0 C242.990684,0 243.376164,0.134918085 243.684549,0.404754256 C244.108577,0.7902345 244.243495,1.34918085 244.243495,2.02377128 C244.204947,4.04754256 244.224221,3.75843238 244.224221,5.70510761 C244.224221,6.07131385 243.935111,6.36042403 243.568905,6.36042403 C243.221972,6.36042403 242.932862,6.07131385 242.932862,5.72438163 Z M246.806939,14.7831674 C246.517828,15.0722775 246.055252,15.0722775 245.766142,14.7831674 C244.918085,13.9351108 244.070029,13.0870543 243.299068,12.2968198 C242.663026,12.3931898 242.142628,12.566656 241.641503,12.5473819 C240.195952,12.5088339 239.039512,11.3138452 238.98169,9.82974623 C238.923868,8.38419531 240.04176,7.15065853 241.564407,6.97719242 C242.894314,6.82300032 244.224221,7.82524896 244.513331,9.21297783 C244.628975,9.7911982 244.571153,10.3694186 244.320591,10.8898169 C244.224221,11.082557 244.262769,11.1789271 244.397687,11.3331192 C245.207196,12.1233537 245.99743,12.9328622 246.806939,13.7230967 C247.096049,14.0314809 247.096049,14.4940572 246.806939,14.7831674 Z M241.757147,11.4102152 C242.701574,11.4102152 243.414712,10.7163508 243.433987,9.7911982 C243.433987,8.86604562 242.720848,8.13363315 241.814969,8.13363315 C240.889817,8.13363315 240.157404,8.8467716 240.13813,9.75265018 C240.118856,10.6778028 240.812721,11.4102152 241.757147,11.4102152 Z M236.595815,4.99196916 C236.595815,5.41599743 236.595815,5.82075169 236.595815,6.24477996 C235.312658,6.24477996 234.029501,6.24477996 232.73691,6.24477996 C232.73691,5.8400257 232.73691,5.43527144 232.73691,4.99196916 C234.010631,4.99196916 235.293788,4.99196916 236.595815,4.99196916 Z M236.595815,9.81047221 C236.595815,10.2345005 236.595815,10.6392547 236.595815,11.063283 C235.312658,11.063283 234.029501,11.063283 232.73691,11.063283 C232.73691,10.6585288 232.73691,10.2537745 232.73691,9.81047221 C234.010631,9.81047221 235.293788,9.81047221 236.595815,9.81047221 Z M241.414318,4.99196916 C241.414318,5.41599743 241.414318,5.82075169 241.414318,6.24477996 C240.131161,6.24477996 238.848004,6.24477996 237.555413,6.24477996 C237.555413,5.8400257 237.555413,5.43527144 237.555413,4.99196916 C238.829134,4.99196916 240.112291,4.99196916 241.414318,4.99196916 Z M232.73691,3.93189849 C232.73691,3.52714423 232.73691,3.12238998 232.73691,2.6790877 C234.020066,2.6790877 235.303223,2.6790877 236.595815,2.6790877 C236.595815,3.08384195 236.595815,3.48859621 236.595815,3.93189849 C235.322093,3.93189849 234.038936,3.93189849 232.73691,3.93189849 Z M232.73691,8.75040154 C232.73691,8.34564729 232.73691,7.94089303 232.73691,7.49759075 C234.020066,7.49759075 235.303223,7.49759075 236.595815,7.49759075 C236.595815,7.902345 236.595815,8.30709926 236.595815,8.75040154 C235.322093,8.75040154 234.038936,8.75040154 232.73691,8.75040154 Z M237.555413,3.93189849 C237.555413,3.52714423 237.555413,3.12238998 237.555413,2.6790877 C238.838569,2.6790877 240.121726,2.6790877 241.414318,2.6790877 C241.414318,3.08384195 241.414318,3.48859621 241.414318,3.93189849 C240.140596,3.93189849 238.857439,3.93189849 237.555413,3.93189849 Z" id="icon-comparison"></path>
            </g>
        </g>
    </g>
</svg>