<?xml version="1.0" encoding="UTF-8"?>
<svg width="85px" height="100px" viewBox="0 0 85 100" version="1.1" xmlns="http://www.w3.org/2000/svg" xmlns:xlink="http://www.w3.org/1999/xlink">
    <!-- Generator: sketchtool 51.2 (57519) - http://www.bohemiancoding.com/sketch -->
    <title>67F325C1-754D-41CE-8F0F-A046D5A34318</title>
    <desc>Created with sketchtool.</desc>
    <defs></defs>
    <g id="Page-1" stroke="none" stroke-width="1" fill="none" fill-rule="evenodd">
        <g id="Sign-in" transform="translate(-558.000000, -90.000000)" fill="#FFFFFF">
            <g id="Logo/Qover/White" transform="translate(557.000000, 90.000000)">
                <g id="qover-v_blue">
                    <path d="M12.5670968,93.0555556 C11.4684091,93.4765534 10.3034395,93.6976192 9.12709677,93.7083333 C6.33729709,93.7215318 3.76278088,92.2089135 2.41354839,89.7638889 C1.71993315,88.4862247 1.36644195,87.0513007 1.38709677,85.5972222 C1.34882724,84.0603853 1.69198247,82.5380527 2.38580645,81.1666667 C3.00690307,79.9516428 3.97182402,78.9468285 5.16,78.2777778 C6.47227869,77.5895326 7.93734173,77.2454909 9.4183871,77.2777778 L16.6451613,77.2777778 L16.6451613,99.1527778 L12.5670968,99.1527778 L12.5670968,93.0555556 Z M10.4448387,80.5555556 C7.18053763,80.5555556 5.5483871,82.2962963 5.5483871,85.7777778 C5.48635688,87.0521947 5.91875026,88.3012862 6.75516129,89.2638889 C7.58730911,90.156688 8.76873185,90.6390063 9.98709677,90.5833333 C10.8950589,90.5780393 11.7870849,90.3439979 12.5809677,89.9027778 L12.5809677,80.5555556 L10.4448387,80.5555556 Z" id="Shape"></path>
                    <path d="M28.2690323,77 C29.7863755,76.9798238 31.2843284,77.3428541 32.6245161,78.0555556 C33.8971383,78.7278991 34.9475685,79.755563 35.6483871,81.0138889 C36.373857,82.331037 36.7420995,83.8154873 36.7164516,85.3194444 C36.7510424,86.8458412 36.3978484,88.3560235 35.69,89.7083333 C34.995224,90.9747654 33.9435753,92.0084516 32.666129,92.6805556 C31.3161137,93.4097529 29.8028347,93.7825865 28.2690323,93.7638889 C26.7394186,93.7845315 25.2301395,93.4115066 23.8858065,92.6805556 C22.6200664,92.002114 21.5789883,90.9693429 20.8896774,89.7083333 C20.181829,88.3560235 19.8286351,86.8458412 19.8632258,85.3194444 C19.8336256,83.8044794 20.2070387,82.3088975 20.9451613,80.9861111 C21.6551747,79.7418981 22.7039217,78.725515 23.9690323,78.0555556 C25.2914119,77.3485495 26.7700162,76.9855846 28.2690323,77 L28.2690323,77 Z M24.1077419,85.3333333 C24.0364711,86.7104352 24.4324398,88.0711947 25.2312903,89.1944444 C25.9531226,90.1152139 27.0732568,90.6320716 28.2412903,90.5833333 C29.4376813,90.6363731 30.5890629,90.1216993 31.3483871,89.1944444 C32.175674,88.0475708 32.5778825,86.647845 32.4858065,85.2361111 C32.5742768,83.8764013 32.170475,82.5302999 31.3483871,81.4444444 C30.5867358,80.5281679 29.4450832,80.0155547 28.2551613,80.0555556 C27.0933036,80.0181046 25.982226,80.533157 25.2590323,81.4444444 C24.4156728,82.5526512 24.0017551,83.9292253 24.093871,85.3194444 L24.1077419,85.3333333 Z" id="Shape"></path>
                    <polygon id="Shape" points="42.3341935 77.3194444 46.01 86.6666667 49.6025806 77.3194444 53.9025806 77.3194444 46.9670968 93.7638889 45.0251613 93.7638889 37.9925806 77.3194444"></polygon>
                    <path d="M62.8770968,77 C64.9147408,76.905376 66.8848298,77.74349 68.2312903,79.2777778 C69.6348525,81.0682581 70.3354724,83.3111621 70.2009677,85.5833333 L70.2009677,86.2222222 L59.34,86.2222222 C59.415531,88.7791382 61.5439664,90.7922695 64.0977419,90.7222222 L64.4167742,90.7222222 C65.3663415,90.721666 66.3073668,90.5426402 67.1909677,90.1944444 C68.1826302,89.788157 69.1156194,89.2509952 69.9651613,88.5972222 L69.9651613,91.7638889 C68.0652923,93.1297004 65.7697652,93.8324244 63.4319355,93.7638889 C61.2223143,93.8509454 59.0746104,93.0219058 57.4951613,91.4722222 C55.9207,89.8391003 55.0878075,87.6285809 55.1925806,85.3611111 C55.1008263,83.1577301 55.8609514,81.0037471 57.3148387,79.3472222 C58.7326516,77.7819833 60.7680823,76.9230501 62.8770968,77 L62.8770968,77 Z M66.4141935,83.6527778 C66.3766379,82.6433017 66.022332,81.6713464 65.4016129,80.875 C64.81251,80.2023953 63.9499618,79.8344444 63.0574194,79.875 C62.1431591,79.8323084 61.2528011,80.1748088 60.6022581,80.8194444 C59.921511,81.5945556 59.5081023,82.5685388 59.4232258,83.5972222 L66.4141935,83.6527778 Z" id="Shape"></path>
                    <path d="M82.143871,77 C82.6926541,77.0024274 83.2335878,77.1307088 83.7251613,77.375 C84.382501,77.7220865 84.9930966,78.1514558 85.5422581,78.6527778 L84.1551613,82.3611111 C83.3930055,81.6264394 82.4252403,81.1419316 81.3809677,80.9722222 C80.6993769,80.9959621 80.0472191,81.2561802 79.536129,81.7083333 C78.9298918,82.2404279 78.455098,82.905998 78.1490323,83.6527778 C77.7915903,84.4086326 77.6022848,85.2331753 77.5941935,86.0694444 L77.5941935,93.4305556 L73.4329032,93.4305556 L73.4329032,77.3194444 L77.4693548,77.3194444 L77.4693548,81.4861111 L77.4693548,81.4861111 C77.9990954,80.2359168 78.7510686,79.092382 79.6887097,78.1111111 C80.327757,77.4296699 81.210787,77.0300447 82.143871,77 L82.143871,77 Z" id="Shape"></path>
                    <path d="M59.0764516,43.375 C55.196916,47.9736291 49.4905071,50.6265809 43.4785484,50.6265809 C37.4665897,50.6265809 31.7601808,47.9736291 27.8806452,43.375 L19.4193548,48.2083333 C24.1739816,54.5793753 31.2616239,58.7981166 39.1229011,59.9363749 C46.9841783,61.0746332 54.9750526,59.0391563 61.3374194,54.2777778 L62.2112903,53.5972222 L62.4609677,53.75 L69.1606452,57.5972222 C70.9704063,55.9102491 72.61042,54.0494757 74.0570968,52.0416667 L59.0764516,43.375 Z" id="Shape"></path>
                    <path d="M23.0119355,30.1111111 C22.9865066,21.9257221 27.8297499,14.5108299 35.3293984,11.2533639 C42.8290468,7.99589776 51.5454315,9.52117672 57.4971354,15.1324931 C63.4488392,20.7438095 65.4933444,29.3639878 62.6967742,37.0555556 L71.1580645,41.9444444 C76.5156758,29.3268895 72.692888,14.6785214 61.8554854,6.29831075 C51.0180827,-2.08189991 35.8974012,-2.08189991 25.0599985,6.29831075 C14.2225958,14.6785214 10.3998081,29.3268895 15.7574194,41.9444444 L24.2187097,37.0555556 C23.4168525,34.8284473 23.0084932,32.4785225 23.0119355,30.1111111 L23.0119355,30.1111111 Z" id="Shape"></path>
                </g>
            </g>
        </g>
    </g>
</svg>